HIERARCHY
ROOT joint_0
{
	OFFSET 0.000000 0.000000 0.000000
	CHANNELS 6 Xposition Yposition Zposition Zrotation Yrotation Xrotation 
	JOINT joint_1
	{
		OFFSET 17.107422 0.519409 105.452026
		CHANNELS 3 Zrotation Yrotation Xrotation
		JOINT joint_2
		{
			OFFSET 6.110352 -1.434082 97.381958
			CHANNELS 3 Zrotation Yrotation Xrotation
			JOINT joint_3
			{
				OFFSET 6.305908 -1.739990 97.255005
				CHANNELS 3 Zrotation Yrotation Xrotation
				JOINT joint_4
				{
					OFFSET 22.074707 -0.492493 131.077026
					CHANNELS 3 Zrotation Yrotation Xrotation
					JOINT joint_5
					{
						OFFSET 34.162842 2.248718 78.700928
						CHANNELS 3 Zrotation Yrotation Xrotation
						End Site
						{
							OFFSET 0.000000 0.000000 0.000000
						}
					}
				}
				JOINT joint_6
				{
					OFFSET 17.059082 -28.836914 72.664062
					CHANNELS 3 Zrotation Yrotation Xrotation
					JOINT joint_7
					{
						OFFSET 22.639893 -134.803833 -24.691040
						CHANNELS 3 Zrotation Yrotation Xrotation
						JOINT joint_8
						{
							OFFSET 7.301758 -32.590759 -269.966064
							CHANNELS 3 Zrotation Yrotation Xrotation
							JOINT joint_9
							{
								OFFSET 35.581055 -8.517151 -242.326965
								CHANNELS 3 Zrotation Yrotation Xrotation
								End Site
								{
									OFFSET 0.000000 0.000000 0.000000
								}
							}
						}
					}
				}
				JOINT joint_10
				{
					OFFSET 7.819092 28.232056 74.432983
					CHANNELS 3 Zrotation Yrotation Xrotation
					JOINT joint_11
					{
						OFFSET -23.457031 135.063843 -22.406982
						CHANNELS 3 Zrotation Yrotation Xrotation
						JOINT joint_12
						{
							OFFSET 17.896973 48.138672 -267.131958
							CHANNELS 3 Zrotation Yrotation Xrotation
							JOINT joint_13
							{
								OFFSET 46.526367 17.567627 -239.975037
								CHANNELS 3 Zrotation Yrotation Xrotation
								End Site
								{
									OFFSET 0.000000 0.000000 0.000000
								}
							}
						}
					}
				}
			}
		}
	}
	JOINT joint_14
	{
		OFFSET 10.553467 -100.140320 -126.306030
		CHANNELS 3 Zrotation Yrotation Xrotation
		JOINT joint_15
		{
			OFFSET -52.094238 -9.565002 -436.052002
			CHANNELS 3 Zrotation Yrotation Xrotation
			JOINT joint_16
			{
				OFFSET -55.682617 -11.310120 -462.482971
				CHANNELS 3 Zrotation Yrotation Xrotation
				JOINT joint_17
				{
					OFFSET 179.119385 -5.942566 -84.087004
					CHANNELS 3 Zrotation Yrotation Xrotation
					End Site
					{
						OFFSET 0.000000 0.000000 0.000000
					}
				}
			}
		}
	}
	JOINT joint_18
	{
		OFFSET -22.235352 101.620483 -123.583984
		CHANNELS 3 Zrotation Yrotation Xrotation
		JOINT joint_19
		{
			OFFSET -38.118408 12.306396 -437.429016
			CHANNELS 3 Zrotation Yrotation Xrotation
			JOINT joint_20
			{
				OFFSET -51.789307 8.010498 -463.006004
				CHANNELS 3 Zrotation Yrotation Xrotation
				JOINT joint_21
				{
					OFFSET 170.088135 59.632324 -83.078003
					CHANNELS 3 Zrotation Yrotation Xrotation
					End Site
					{
						OFFSET 0.000000 0.000000 0.000000
					}
				}
			}
		}
	}
}
MOTION
Frames: 12
Frame Time: 0.016667
-3196.576172 869.464050 1126.701050 14.835678 0.566536 -1.138825 0.723427 6.881177 2.488740 1.545592 -1.261359 -0.484873 1.580471 1.189297 0.533704 0.770910 6.012713 -2.814183 0.000000 0.000000 0.000000 1.567211 4.045384 -0.567140 -1.093650 4.826874 0.998128 -0.313812 -1.355428 -2.360665 0.000000 0.000000 0.000000 -0.340401 0.479769 -1.302487 0.195562 0.192540 -3.260723 -0.460152 -5.900910 2.029911 0.000000 0.000000 0.000000 -2.219565 -10.944991 -0.119967 -2.684635 9.866246 0.079705 -2.090051 0.504814 -0.937953 0.000000 0.000000 0.000000 -5.749587 -8.502546 12.515486 -2.895373 26.629721 -5.278157 -2.090572 4.096747 -2.406934 0.000000 0.000000 0.000000 
-3190.802002 864.633972 1128.729004 15.301953 0.552015 -0.941603 0.648997 7.310495 2.188061 1.617804 -1.351731 -0.532291 1.667415 1.251562 0.579338 0.616907 6.248189 -2.524702 0.000000 0.000000 0.000000 1.576308 3.763924 -0.659068 -1.181791 4.652634 1.416126 -0.397532 -1.656054 -2.915433 0.000000 0.000000 0.000000 -0.340365 0.554786 -0.985208 0.118529 0.102722 -3.819183 -0.570751 -6.427284 2.006951 0.000000 0.000000 0.000000 -2.396873 -10.403134 0.248026 -2.866865 9.426456 -0.315068 -2.362021 0.733378 -1.054839 0.000000 0.000000 0.000000 -5.897041 -9.699225 12.969289 -2.906190 28.498254 -5.922151 -1.767167 5.910372 -2.919175 0.000000 0.000000 0.000000 
-3185.239990 860.425537 1130.496948 15.603598 0.540964 -0.786577 0.641429 7.618890 1.937849 1.742423 -1.437061 -0.504997 1.815377 1.313987 0.571370 0.507500 6.486614 -2.358394 0.000000 0.000000 0.000000 1.461867 3.542363 -0.761248 -1.151225 4.435191 1.491241 -0.349136 -1.941502 -2.750534 0.000000 0.000000 0.000000 -0.242157 0.550453 -0.869496 0.056821 0.059544 -3.738156 -0.808609 -7.189583 1.502778 0.000000 0.000000 0.000000 -2.486313 -9.793329 0.496507 -2.985913 8.803967 -0.473465 -2.559512 1.054455 -1.134700 0.000000 0.000000 0.000000 -5.878577 -10.765423 13.251010 -2.826155 30.203523 -6.255416 -1.292964 7.226747 -3.200832 0.000000 0.000000 0.000000 
-3179.803467 856.710510 1132.262939 15.786604 0.545015 -0.616635 0.686037 7.822740 1.636791 1.899771 -1.522324 -0.407676 2.005157 1.384511 0.519152 0.414237 6.739250 -2.245637 0.000000 0.000000 0.000000 1.263894 3.372740 -0.886315 -1.042559 4.208237 1.373244 -0.202517 -2.287634 -2.054712 0.000000 0.000000 0.000000 -0.078613 0.490400 -0.881765 -0.007860 0.051693 -3.161335 -1.160749 -8.126508 0.592994 0.000000 0.000000 0.000000 -2.515578 -9.061291 0.650821 -3.047851 7.879238 -0.529428 -2.710263 1.522342 -1.188653 0.000000 0.000000 0.000000 -5.710851 -11.754548 13.377296 -2.656321 31.779964 -6.384342 -0.662377 8.233116 -3.315722 0.000000 0.000000 0.000000 
-3174.701904 853.544495 1133.779053 15.893900 0.567313 -0.468236 0.734914 7.983470 1.373958 2.049013 -1.588968 -0.299612 2.186344 1.438883 0.462277 0.347971 6.955107 -2.191875 0.000000 0.000000 0.000000 1.067154 3.204128 -1.018865 -0.917904 3.961474 1.151979 -0.040163 -2.632456 -1.221103 0.000000 0.000000 0.000000 0.078519 0.452654 -0.931889 -0.080918 0.081716 -2.506382 -1.546186 -9.153341 -0.321472 0.000000 0.000000 0.000000 -2.523378 -8.433191 0.777476 -3.075348 7.075976 -0.564078 -2.809744 1.949781 -1.220314 0.000000 0.000000 0.000000 -5.688570 -12.681015 13.363164 -2.670473 33.271023 -6.568454 -0.355861 8.690737 -3.376796 0.000000 0.000000 0.000000 
-3170.154541 850.991821 1134.844971 15.942648 0.612264 -0.383367 0.757726 8.133634 1.237602 2.166691 -1.615541 -0.217562 2.327864 1.452413 0.417782 0.328367 7.096607 -2.226532 0.000000 0.000000 0.000000 0.927707 2.996930 -1.167421 -0.801115 3.679824 0.870876 0.098875 -2.911449 -0.448102 0.000000 0.000000 0.000000 0.180379 0.512399 -0.951580 -0.153802 0.175425 -2.042077 -1.921660 -10.312585 -0.991464 0.000000 0.000000 0.000000 -2.514722 -8.092085 0.931219 -3.076388 6.727325 -0.625369 -2.851492 2.177421 -1.231666 0.000000 0.000000 0.000000 -6.045006 -13.557920 13.216960 -3.089623 34.749046 -7.018037 -0.831279 8.287602 -3.453622 0.000000 0.000000 0.000000 
-3166.078857 849.030212 1135.562012 15.917803 0.679561 -0.350653 0.775202 8.248135 1.200092 2.268693 -1.607720 -0.145751 2.447803 1.433866 0.372362 0.351375 7.185216 -2.346521 0.000000 0.000000 0.000000 0.812882 2.771150 -1.329871 -0.676984 3.367235 0.491853 0.239354 -3.153170 0.413622 0.000000 0.000000 0.000000 0.251461 0.640841 -0.979636 -0.226324 0.332867 -1.606797 -2.317483 -11.640852 -1.553495 0.000000 0.000000 0.000000 -2.471778 -7.949028 1.090324 -3.044445 6.668967 -0.684968 -2.841223 2.270853 -1.223412 0.000000 0.000000 0.000000 -6.642404 -14.390240 12.950944 -3.777785 36.189530 -7.652778 -1.927970 7.102830 -3.500473 0.000000 0.000000 0.000000 
-3162.132568 847.556946 1136.036987 15.842976 0.758403 -0.342344 0.785540 8.352110 1.219063 2.356402 -1.600434 -0.106425 2.548925 1.414133 0.346394 0.380307 7.248634 -2.468633 0.000000 0.000000 0.000000 0.722751 2.548155 -1.440361 -0.581609 3.056784 0.096546 0.346783 -3.385690 1.122309 0.000000 0.000000 0.000000 0.302232 0.762844 -1.024192 -0.285283 0.477830 -1.264791 -2.639630 -12.763455 -1.940535 0.000000 0.000000 0.000000 -2.427693 -7.876588 1.246235 -3.009285 6.716988 -0.738655 -2.819284 2.293464 -1.212226 0.000000 0.000000 0.000000 -7.253773 -15.171158 12.681863 -4.477912 37.395070 -8.404835 -3.197388 5.808807 -3.571692 0.000000 0.000000 0.000000 
-3158.048828 846.491699 1136.296021 15.735073 0.847581 -0.334108 0.783444 8.453613 1.260164 2.424954 -1.617111 -0.117475 2.627389 1.420070 0.357401 0.390122 7.298786 -2.532097 0.000000 0.000000 0.000000 0.668257 2.341079 -1.451665 -0.534428 2.771785 -0.252206 0.402255 -3.633368 1.491095 0.000000 0.000000 0.000000 0.334624 0.837185 -1.074221 -0.315392 0.564031 -1.089518 -2.817712 -13.426888 -2.106237 0.000000 0.000000 0.000000 -2.413091 -7.808187 1.397146 -2.996467 6.775524 -0.797600 -2.817139 2.265577 -1.211999 0.000000 0.000000 0.000000 -7.782345 -15.884722 12.497116 -5.066067 38.250741 -9.291291 -4.378453 4.883220 -3.734424 0.000000 0.000000 0.000000 
-3153.956787 845.870728 1136.297974 15.585442 0.950985 -0.337150 0.772332 8.542039 1.339152 2.474781 -1.641505 -0.168510 2.682446 1.437008 0.396639 0.395238 7.324349 -2.568286 0.000000 0.000000 0.000000 0.644451 2.141394 -1.393244 -0.517472 2.499715 -0.579736 0.423203 -3.883157 1.617973 0.000000 0.000000 0.000000 0.343207 0.893432 -1.120855 -0.317225 0.621555 -1.061147 -2.884677 -13.777132 -2.087478 0.000000 0.000000 0.000000 -2.413656 -7.789738 1.546641 -2.995338 6.911343 -0.863180 -2.820836 2.162581 -1.217053 0.000000 0.000000 0.000000 -8.312882 -16.534892 12.357390 -5.637512 38.810817 -10.329621 -5.632171 4.084800 -3.971983 0.000000 0.000000 0.000000 
-3150.045654 845.772034 1136.237061 15.416927 1.064602 -0.360227 0.763606 8.618209 1.460786 2.512482 -1.663854 -0.227429 2.722203 1.455125 0.439458 0.402453 7.341044 -2.602062 0.000000 0.000000 0.000000 0.614887 1.944453 -1.306256 -0.514343 2.233793 -0.877371 0.420157 -4.085494 1.578298 0.000000 0.000000 0.000000 0.346457 0.899312 -1.176090 -0.298679 0.624747 -1.137034 -2.855634 -13.812864 -1.940987 0.000000 0.000000 0.000000 -2.405359 -7.781007 1.652867 -2.988642 7.040094 -0.871287 -2.811576 2.062728 -1.216306 0.000000 0.000000 0.000000 -8.799177 -17.173894 12.177366 -6.171571 39.076937 -11.268484 -6.866025 3.261391 -4.193181 0.000000 0.000000 0.000000 
-3146.464355 846.311462 1136.214966 15.245268 1.181923 -0.410404 0.765072 8.689301 1.640912 2.545104 -1.679947 -0.267000 2.755625 1.469862 0.466437 0.417961 7.358491 -2.655029 0.000000 0.000000 0.000000 0.548657 1.748188 -1.217163 -0.519070 1.969302 -1.143323 0.395144 -4.214454 1.386931 0.000000 0.000000 0.000000 0.357273 0.813151 -1.256123 -0.263226 0.535234 -1.314398 -2.719742 -13.457064 -1.669412 0.000000 0.000000 0.000000 -2.368941 -7.745534 1.670659 -2.966514 7.096374 -0.752579 -2.775583 2.015313 -1.201879 0.000000 0.000000 0.000000 -9.237600 -17.840851 11.887730 -6.684799 39.074456 -11.954165 -8.067553 2.315305 -4.361057 0.000000 0.000000 0.000000 
